<svg width="106" height="54" viewBox="0 0 106 54" fill="none" xmlns="http://www.w3.org/2000/svg">
<path d="M0.253906 45.1719L6.61133 27.0859H8.20312L1.8457 45.1719H0.253906ZM8.71094 45.1719L15.0684 27.0859H16.6602L10.3027 45.1719H8.71094ZM47.2656 12.5156H52.5586L38.0273 44.6445H37.6953L23.2227 12.5156H28.4766L37.8516 33.8242L47.2656 12.5156ZM78.6719 44H72.6367L60.9961 28.7656V44H56.0742V12.5156H60.9961V27.5938L71.8164 12.5156H77.5586L66.3867 27.9648L78.6719 44ZM105.391 44H99.3164L90.8398 31.8125H86.9727V44H82.0312L82.0117 12.5156H91.7969C97.6562 12.5156 102.461 17.0273 102.461 22.6328C102.461 26.6953 99.8438 30.2305 96.2305 31.4023L105.391 44ZM86.9531 27.7109H91.9141C94.8828 27.7305 97.3633 25.3281 97.3633 22.5156C97.3633 19.5859 94.8438 17.418 91.9141 17.418H86.9531V27.7109Z" fill="white"/>
</svg>
