<svg width="1440" height="657" viewBox="0 0 1440 657" fill="none" xmlns="http://www.w3.org/2000/svg">
<mask id="mask0_47_10" style="mask-type:alpha" maskUnits="userSpaceOnUse" x="0" y="0" width="1440" height="657">
<rect width="1440" height="657" fill="#D9D9D9"/>
</mask>
<g mask="url(#mask0_47_10)">
<path d="M-130.82 71.0234H-12.2168L-269.932 635.672H-274.033L-530.723 71.0234H-413.486L-272.324 390.945L-130.82 71.0234ZM43.1543 622V71.0234H153.896V622H43.1543ZM662.148 622H527.48L360 380.691V622H249.6V71.0234H360V309.256L514.834 71.0234H642.666L465.957 340.701L662.148 622ZM1084.61 622L1049.75 545.096H829.287L794.082 622H674.453L937.637 57.3516H941.055L1204.58 622H1084.61ZM872.354 450.76H1006.68L939.688 303.445L872.354 450.76ZM1681.73 622H1546.38L1371.04 361.551V622H1260.29L1259.95 71.0234H1439.74C1542.62 71.0234 1627.04 150.32 1627.04 249.441C1627.04 320.193 1584.32 382.059 1525.19 402.908L1681.73 622ZM1370.69 180.74V319.168L1441.79 319.51C1479.38 319.852 1512.88 289.432 1512.88 250.125C1512.88 210.818 1479.04 180.74 1441.79 180.74H1370.69ZM1996.52 632.596C1839.3 632.596 1710.44 504.08 1710.44 347.195C1710.44 188.943 1839.3 59.7441 1996.87 59.7441C2154.43 59.7441 2283.63 188.943 2283.63 347.195C2283.63 504.08 2154.43 632.596 1996.52 632.596ZM1996.52 520.486C2092.91 520.486 2171.52 442.215 2171.52 346.512C2171.52 250.125 2092.91 171.512 1996.52 171.512C1900.48 171.512 1822.21 250.125 1822.21 346.512C1822.21 442.215 1900.48 520.486 1996.52 520.486Z" fill="white"/>
</g>
</svg>
