<svg width="122" height="82" viewBox="0 0 122 82" fill="none" xmlns="http://www.w3.org/2000/svg">
<path d="M49.75 0.625C51.2604 1.875 52.8021 3.23958 54.375 4.71875C55.9479 6.1875 57.3802 7.80729 58.6719 9.57812C59.974 11.349 60.9688 13.3021 61.6562 15.4375C63.0104 19.8229 62.6615 25.1042 60.6094 31.2812C55.3281 47.1667 42.9948 61.4062 23.6094 74C21.2969 75.5312 18.8646 76.9531 16.3125 78.2656C13.7708 79.5781 11.0885 80.5833 8.26562 81.2812C7.88021 81.375 7.46875 81.4531 7.03125 81.5156C6.60417 81.5885 6.16667 81.625 5.71875 81.625C5.28125 81.625 4.84375 81.5781 4.40625 81.4844C3.96875 81.3906 3.54688 81.2344 3.14062 81.0156C1.79688 80.2656 0.984375 79.026 0.703125 77.2969C0.421875 75.5677 0.6875 73.4688 1.5 71C7.625 52.6354 14.9531 34.7656 23.4844 17.3906C23.5885 17.1927 23.7396 17.0625 23.9375 17C24.1354 16.9271 24.3385 16.9375 24.5469 17.0312C24.7448 17.1354 24.875 17.2865 24.9375 17.4844C25.0104 17.6823 25 17.8802 24.9062 18.0781C16.4062 35.3906 9.10417 53.1979 3 71.5C2.76042 72.1771 2.53646 73.0521 2.32812 74.125C2.13021 75.2083 2.11979 76.2604 2.29688 77.2812C2.47396 78.3125 3.00521 79.0938 3.89062 79.625C4.50521 79.9375 5.16667 80.0729 5.875 80.0312C6.59375 80 7.27083 79.901 7.90625 79.7344C10.6146 79.0677 13.2031 78.0938 15.6719 76.8125C18.1406 75.5417 20.5 74.1615 22.75 72.6719C41.8229 60.276 53.9427 46.3125 59.1094 30.7812C61.0573 24.9167 61.401 19.9583 60.1406 15.9062C59.5052 13.9167 58.5625 12.0833 57.3125 10.4062C56.0729 8.72917 54.6927 7.18229 53.1719 5.76562C51.6615 4.34896 50.1823 3.04167 48.7344 1.84375C48.5677 1.6875 48.474 1.50521 48.4531 1.29688C48.4427 1.08854 48.5052 0.895833 48.6406 0.71875C48.7865 0.552083 48.9635 0.463542 49.1719 0.453125C49.3802 0.432292 49.5729 0.489583 49.75 0.625ZM62.0625 55.7344C63.25 55.8385 64.5833 55.5729 66.0625 54.9375C67.5417 54.2917 68.7188 53.599 69.5938 52.8594C69.7396 52.7344 69.901 52.6823 70.0781 52.7031C70.2552 52.7135 70.4062 52.7865 70.5312 52.9219C70.6562 53.0677 70.7083 53.2292 70.6875 53.4062C70.6771 53.5833 70.6042 53.7344 70.4688 53.8594C69.9062 54.349 69.1771 54.8438 68.2812 55.3438C67.3958 55.8333 66.4479 56.25 65.4375 56.5938C64.4271 56.9375 63.474 57.1094 62.5781 57.1094C62.3385 57.1094 62.1094 57.0938 61.8906 57.0625C60.9115 56.9271 60.1875 56.5052 59.7188 55.7969C58.8854 54.5156 59.3021 52.3542 60.9688 49.3125C61.0625 49.1458 61.1927 49.0417 61.3594 49C61.5365 48.9479 61.7083 48.9635 61.875 49.0469C62.0312 49.1406 62.1354 49.276 62.1875 49.4531C62.2396 49.6198 62.2188 49.7865 62.125 49.9531C61.5104 51.1094 61.099 52.0417 60.8906 52.75C60.6823 53.4583 60.5938 53.9948 60.625 54.3594C60.6667 54.7135 60.7344 54.9479 60.8281 55.0625C61.0677 55.4375 61.4792 55.6615 62.0625 55.7344ZM62.8281 46.5156C63.0156 46.5156 63.1771 46.5833 63.3125 46.7188C63.4479 46.8542 63.5156 47.0156 63.5156 47.2031C63.5156 47.3906 63.4479 47.5521 63.3125 47.6875C63.1771 47.8229 63.0156 47.8906 62.8281 47.8906C62.6406 47.8906 62.4792 47.8229 62.3438 47.6875C62.2083 47.5521 62.1406 47.3906 62.1406 47.2031C62.1406 47.0156 62.2083 46.8542 62.3438 46.7188C62.4792 46.5833 62.6406 46.5156 62.8281 46.5156ZM81.8906 50.9688C82.0156 50.8229 82.1615 50.7396 82.3281 50.7188C82.5052 50.6979 82.6719 50.7448 82.8281 50.8594C82.974 50.974 83.0573 51.1198 83.0781 51.2969C83.099 51.474 83.0521 51.6406 82.9375 51.7969C80.6875 54.6823 78.7396 56.125 77.0938 56.125C76.9271 56.125 76.7604 56.1094 76.5938 56.0781C75.8958 55.9323 75.3177 55.5885 74.8594 55.0469C74.401 54.4948 74.0312 53.8646 73.75 53.1562C73.4688 52.4479 73.2396 51.7865 73.0625 51.1719C72.9375 50.7552 72.8281 50.4271 72.7344 50.1875C72.651 49.9896 72.5729 49.8385 72.5 49.7344C72.4271 49.6302 72.3646 49.5625 72.3125 49.5312C72.2708 49.4896 72.2396 49.4688 72.2188 49.4688C72.1458 49.4583 72.0781 49.4375 72.0156 49.4062C71.1302 51.3438 70.099 53.6979 68.9219 56.4688C68.7865 56.7292 68.5781 56.8646 68.2969 56.875C68.2135 56.875 68.1302 56.8542 68.0469 56.8125C67.8698 56.7396 67.75 56.6198 67.6875 56.4531C67.625 56.2865 67.625 56.1146 67.6875 55.9375C69.2083 52.4062 70.5104 49.4583 71.5938 47.0938C72.4688 45.1979 73.3698 43.1771 74.2969 41.0312C74.9531 39.4896 75.6562 38.0104 76.4062 36.5938C77.1667 35.1667 77.9062 33.9948 78.625 33.0781C79.3542 32.151 80 31.6667 80.5625 31.625C80.9583 31.625 81.25 31.8073 81.4375 32.1719C81.8125 33.0365 81.2969 34.8177 79.8906 37.5156C78.4948 40.2135 76.2552 43.4271 73.1719 47.1562C73.1094 47.2292 73.0365 47.2865 72.9531 47.3281C72.901 47.4323 72.8542 47.5417 72.8125 47.6562C72.7604 47.7604 72.7083 47.8646 72.6562 47.9688C72.625 48.0417 72.5938 48.1146 72.5625 48.1875C72.6458 48.2083 72.724 48.2344 72.7969 48.2656C74.1094 47.1094 75.4427 45.9844 76.7969 44.8906C76.9427 44.776 77.1042 44.7292 77.2812 44.75C77.4583 44.7708 77.6094 44.8542 77.7344 45C77.849 45.1458 77.8958 45.3073 77.875 45.4844C77.8542 45.6615 77.776 45.8073 77.6406 45.9219C76.3177 46.9948 75.0156 48.0938 73.7344 49.2188C73.8385 49.4062 73.9167 49.5625 73.9688 49.6875C74.0833 49.9792 74.2031 50.3385 74.3281 50.7656C74.474 51.2552 74.6562 51.7917 74.875 52.375C75.0938 52.9583 75.3646 53.4792 75.6875 53.9375C76.0104 54.3958 76.3958 54.6719 76.8438 54.7656C77.25 54.8906 77.8594 54.7083 78.6719 54.2188C79.4948 53.7188 80.5677 52.6354 81.8906 50.9688ZM75.5156 41.5469C75.3698 41.9115 75.2188 42.2604 75.0625 42.5938C76.8125 40.1875 78.0729 38.2031 78.8438 36.6406C79.625 35.0677 80.0729 33.9531 80.1875 33.2969C79.7917 33.6615 79.1979 34.4844 78.4062 35.7656C77.6146 37.0469 76.651 38.974 75.5156 41.5469ZM97.4062 51.4375C97.5312 51.2917 97.6823 51.2135 97.8594 51.2031C98.0365 51.1823 98.1979 51.2344 98.3438 51.3594C98.4896 51.4844 98.5677 51.6354 98.5781 51.8125C98.5885 51.9896 98.5365 52.151 98.4219 52.2969C97.349 53.526 96.1771 54.5208 94.9062 55.2812C93.6458 56.0417 92.4271 56.5104 91.25 56.6875C90.0833 56.8542 89.1146 56.6667 88.3438 56.125C88.125 55.9792 87.9167 55.7656 87.7188 55.4844C87.5208 55.1927 87.3854 54.8229 87.3125 54.375C86.8125 54.9375 86.2812 55.4583 85.7188 55.9375C85.2604 56.375 84.7031 56.6979 84.0469 56.9062C83.8594 56.9479 83.6771 56.9688 83.5 56.9688C82.8646 56.9688 82.3333 56.724 81.9062 56.2344C81.3854 55.5469 81.2969 54.5938 81.6406 53.375C82.026 52.1354 82.651 51.0156 83.5156 50.0156C84.3802 49.0052 85.2344 48.2969 86.0781 47.8906C86.9635 47.474 87.7448 47.3594 88.4219 47.5469C89.1302 47.7656 89.625 48.2083 89.9062 48.875C90.0521 48.9583 90.151 49.0781 90.2031 49.2344C90.2552 49.3802 90.25 49.5365 90.1875 49.7031C89.8438 50.5469 89.4375 51.349 88.9688 52.1094C88.4271 53.5677 88.4792 54.5521 89.125 55.0625C89.9271 55.5729 91.1354 55.5104 92.75 54.875C94.375 54.2396 95.9271 53.0938 97.4062 51.4375ZM87.7656 51.5312C87.9844 50.9375 88.3073 50.276 88.7344 49.5469C88.6927 49.3698 88.6094 49.2188 88.4844 49.0938C88.3594 48.9583 88.2188 48.8698 88.0625 48.8281C87.9688 48.8073 87.8646 48.7969 87.75 48.7969C87.4479 48.7969 87.0781 48.8958 86.6406 49.0938C85.9323 49.4375 85.2135 50.0417 84.4844 50.9062C83.7552 51.7708 83.2344 52.7188 82.9219 53.75C82.7031 54.5312 82.7135 55.0833 82.9531 55.4062C83.0573 55.5312 83.1771 55.6094 83.3125 55.6406C83.4583 55.6615 83.5938 55.651 83.7188 55.6094C84.1146 55.4844 84.4948 55.2552 84.8594 54.9219C85.9844 53.9635 86.9531 52.8333 87.7656 51.5312ZM106.141 52C106.307 52.0833 106.417 52.2083 106.469 52.375C106.531 52.5417 106.526 52.7083 106.453 52.875C105.911 53.9896 105.266 54.8802 104.516 55.5469C103.776 56.2031 103 56.6771 102.188 56.9688C101.375 57.25 100.62 57.3906 99.9219 57.3906C99.7865 57.3906 99.6562 57.3854 99.5312 57.375C98.1667 57.25 97.3281 56.7708 97.0156 55.9375C96.7969 55.0833 96.8958 54.2865 97.3125 53.5469C97.7188 52.8073 98.1406 52.1927 98.5781 51.7031C98.5885 51.7031 98.599 51.6979 98.6094 51.6875C98.6094 51.6771 98.6146 51.6719 98.625 51.6719C98.2604 51.4427 97.9427 51.1719 97.6719 50.8594C97.2969 50.3802 97.1198 49.9583 97.1406 49.5938C97.1406 49.5521 97.1406 49.5156 97.1406 49.4844C97.1198 49.151 97.276 48.7552 97.6094 48.2969C97.9323 47.8281 98.4635 47.4583 99.2031 47.1875C99.6927 46.9896 100.161 46.9844 100.609 47.1719C100.932 47.3073 101.146 47.5104 101.25 47.7812C101.354 48.0833 101.349 48.3906 101.234 48.7031C101.12 49.0156 100.953 49.2708 100.734 49.4688C100.245 49.8958 99.724 50.2188 99.1719 50.4375C99.3802 50.5833 99.6094 50.7083 99.8594 50.8125C100.036 50.8854 100.161 51.0052 100.234 51.1719C100.297 51.3385 100.297 51.5104 100.234 51.6875C100.12 51.9167 99.9115 52.2083 99.6094 52.5625C99.2448 52.9688 98.901 53.4375 98.5781 53.9688C98.2552 54.5 98.1562 55.0208 98.2812 55.5312C98.3021 55.6146 98.4219 55.7135 98.6406 55.8281C98.8698 55.9427 99.1979 56.0156 99.625 56.0469C100.531 56.1302 101.51 55.8958 102.562 55.3438C103.615 54.7812 104.51 53.7708 105.25 52.3125C105.333 52.1458 105.458 52.0312 105.625 51.9688C105.792 51.9062 105.964 51.9167 106.141 52ZM98.5156 49.2656C98.9948 49.099 99.4375 48.8385 99.8438 48.4844C99.8854 48.4531 99.9167 48.4115 99.9375 48.3594C99.875 48.3594 99.7969 48.3802 99.7031 48.4219C99.0677 48.6823 98.6719 48.9635 98.5156 49.2656ZM120.156 50.8281C120.323 50.724 120.495 50.6875 120.672 50.7188C120.849 50.75 120.995 50.8385 121.109 50.9844C121.214 51.151 121.25 51.3229 121.219 51.5C121.188 51.6771 121.099 51.8229 120.953 51.9375C119.016 53.2708 117.25 54.1198 115.656 54.4844C114.073 54.849 112.698 54.901 111.531 54.6406C111.24 55.2448 110.828 55.7969 110.297 56.2969C109.661 56.8906 108.979 57.25 108.25 57.375C108.083 57.4062 107.922 57.4219 107.766 57.4219C107.047 57.4219 106.417 57.1823 105.875 56.7031C105 55.8281 104.682 54.7292 104.922 53.4062C105.068 52.7292 105.391 52.026 105.891 51.2969C106.38 50.5677 107.01 50.0729 107.781 49.8125C108.146 49.5104 108.651 49.3802 109.297 49.4219C109.714 49.4427 110.141 49.5625 110.578 49.7812C111.026 50 111.38 50.3385 111.641 50.7969C111.911 51.3281 112.047 51.9115 112.047 52.5469C112.036 52.8177 112.005 53.0833 111.953 53.3438C113.005 53.5312 114.224 53.4479 115.609 53.0938C117.005 52.7292 118.521 51.974 120.156 50.8281ZM109.375 55.3125C109.719 54.9896 109.995 54.6406 110.203 54.2656C109.286 53.8802 108.604 53.4479 108.156 52.9688C107.74 52.5417 107.464 52.1042 107.328 51.6562C106.786 52.25 106.422 52.9323 106.234 53.7031C106.151 54.0781 106.156 54.4479 106.25 54.8125C106.354 55.1771 106.531 55.4792 106.781 55.7188C107.115 56 107.531 56.1094 108.031 56.0469C108.323 55.9948 108.583 55.8958 108.812 55.75C109.042 55.6042 109.229 55.4583 109.375 55.3125ZM110.656 53C110.677 52.8333 110.688 52.6719 110.688 52.5156C110.698 52.3281 110.677 52.1406 110.625 51.9531C110.583 51.7552 110.526 51.5833 110.453 51.4375C110.266 51.125 109.927 50.9115 109.438 50.7969C109.219 50.7552 109.042 50.7448 108.906 50.7656C108.771 50.7865 108.688 50.8073 108.656 50.8281C108.646 50.8385 108.641 50.849 108.641 50.8594C108.568 50.974 108.573 51.1406 108.656 51.3594C108.74 51.5677 108.891 51.7865 109.109 52.0156C109.484 52.401 110 52.7292 110.656 53Z" fill="white"/>
</svg>
