<svg width="240" height="80" viewBox="0 0 240 80" fill="none" xmlns="http://www.w3.org/2000/svg">
<mask id="path-1-outside-1_141_225" maskUnits="userSpaceOnUse" x="-1" y="-1" width="242" height="82" fill="black">
<rect fill="white" x="-1" y="-1" width="242" height="82"/>
<path d="M58.7812 78L54.9844 69.1875H26.7656L22.9219 78H0.984375L36.0938 1.5H45.6094L80.7656 78H58.7812ZM33.0938 54.5156H48.6094L40.875 36.6094L33.0938 54.5156ZM152.156 78H128.672L108.469 45.1875V78H88.4062L88.3125 2.4375H117C133.312 2.4375 144.984 13.4531 144.984 27C144.984 36.4219 139.312 44.2969 131.906 47.6719L152.156 78ZM108.375 20.4844V35.625L116.578 35.6719C120.844 35.7188 124.734 32.7188 124.734 28.0781C124.734 23.3906 120.797 20.4844 116.578 20.4844H108.375ZM197.531 79.9219C174.047 79.9219 156.094 62.8125 156.094 40.3125C156.094 17.625 174.094 0.421875 197.578 0.421875C221.062 0.421875 239.062 17.625 239.062 40.3125C239.062 62.8125 221.062 79.9219 197.531 79.9219ZM197.578 60.75C209.578 60.75 218.766 51.7969 218.766 40.1719C218.766 28.5 209.578 19.5 197.578 19.5C185.578 19.5 176.391 28.5 176.391 40.1719C176.391 51.7969 185.578 60.75 197.578 60.75Z"/>
</mask>
<path d="M58.7812 78L57.8629 78.3957L58.1232 79H58.7812V78ZM54.9844 69.1875L55.9028 68.7918L55.6424 68.1875H54.9844V69.1875ZM26.7656 69.1875V68.1875H26.1108L25.849 68.7877L26.7656 69.1875ZM22.9219 78V79H23.5767L23.8385 78.3998L22.9219 78ZM0.984375 78L0.0755212 77.5829L-0.574858 79H0.984375V78ZM36.0938 1.5V0.5H35.4524L35.1849 1.08289L36.0938 1.5ZM45.6094 1.5L46.518 1.08243L46.2504 0.5H45.6094V1.5ZM80.7656 78V79H82.3257L81.6743 77.5824L80.7656 78ZM33.0938 54.5156L32.1766 54.1171L31.5689 55.5156H33.0938V54.5156ZM48.6094 54.5156V55.5156H50.1306L49.5274 54.1191L48.6094 54.5156ZM40.875 36.6094L41.793 36.2128L40.8778 34.0939L39.9579 36.2108L40.875 36.6094ZM59.6996 77.6043L55.9028 68.7918L54.066 69.5832L57.8629 78.3957L59.6996 77.6043ZM54.9844 68.1875H26.7656V70.1875H54.9844V68.1875ZM25.849 68.7877L22.0053 77.6002L23.8385 78.3998L27.6822 69.5873L25.849 68.7877ZM22.9219 77H0.984375V79H22.9219V77ZM1.89323 78.4171L37.0026 1.91711L35.1849 1.08289L0.0755212 77.5829L1.89323 78.4171ZM36.0938 2.5H45.6094V0.5H36.0938V2.5ZM44.7007 1.91757L79.857 78.4176L81.6743 77.5824L46.518 1.08243L44.7007 1.91757ZM80.7656 77H58.7812V79H80.7656V77ZM33.0938 55.5156H48.6094V53.5156H33.0938V55.5156ZM49.5274 54.1191L41.793 36.2128L39.957 37.0059L47.6914 54.9122L49.5274 54.1191ZM39.9579 36.2108L32.1766 54.1171L34.0109 54.9142L41.7921 37.0079L39.9579 36.2108ZM152.156 78V79H154.026L152.988 77.4447L152.156 78ZM128.672 78L127.82 78.5243L128.113 79H128.672V78ZM108.469 45.1875L109.32 44.6632L107.469 41.6561V45.1875H108.469ZM108.469 78V79H109.469V78H108.469ZM88.4062 78L87.4062 78.0012L87.4075 79H88.4062V78ZM88.3125 2.4375V1.4375H87.3113L87.3125 2.43874L88.3125 2.4375ZM131.906 47.6719L131.492 46.7619L130.422 47.2494L131.075 48.2272L131.906 47.6719ZM108.375 20.4844V19.4844H107.375V20.4844H108.375ZM108.375 35.625H107.375V36.6193L108.369 36.625L108.375 35.625ZM116.578 35.6719L116.589 34.6719L116.584 34.6719L116.578 35.6719ZM152.156 77H128.672V79H152.156V77ZM129.523 77.4757L109.32 44.6632L107.617 45.7118L127.82 78.5243L129.523 77.4757ZM107.469 45.1875V78H109.469V45.1875H107.469ZM108.469 77H88.4062V79H108.469V77ZM89.4062 77.9988L89.3125 2.43626L87.3125 2.43874L87.4062 78.0012L89.4062 77.9988ZM88.3125 3.4375H117V1.4375H88.3125V3.4375ZM117 3.4375C132.865 3.4375 143.984 14.1047 143.984 27H145.984C145.984 12.8015 133.76 1.4375 117 1.4375V3.4375ZM143.984 27C143.984 36.0151 138.555 43.5431 131.492 46.7619L132.321 48.5818C140.07 45.0507 145.984 36.8287 145.984 27H143.984ZM131.075 48.2272L151.325 78.5553L152.988 77.4447L132.738 47.1166L131.075 48.2272ZM107.375 20.4844V35.625H109.375V20.4844H107.375ZM108.369 36.625L116.572 36.6719L116.584 34.6719L108.381 34.625L108.369 36.625ZM116.567 36.6718C121.275 36.7236 125.734 33.3832 125.734 28.0781H123.734C123.734 32.0543 120.412 34.7139 116.589 34.6719L116.567 36.6718ZM125.734 28.0781C125.734 22.7103 121.212 19.4844 116.578 19.4844V21.4844C120.382 21.4844 123.734 24.0709 123.734 28.0781H125.734ZM116.578 19.4844H108.375V21.4844H116.578V19.4844ZM197.531 78.9219C174.555 78.9219 157.094 62.2173 157.094 40.3125H155.094C155.094 63.4077 173.538 80.9219 197.531 80.9219V78.9219ZM157.094 40.3125C157.094 18.2155 174.607 1.42188 197.578 1.42188V-0.578125C173.581 -0.578125 155.094 17.0345 155.094 40.3125H157.094ZM197.578 1.42188C220.549 1.42188 238.062 18.2155 238.062 40.3125H240.062C240.062 17.0345 221.576 -0.578125 197.578 -0.578125V1.42188ZM238.062 40.3125C238.062 62.2152 220.556 78.9219 197.531 78.9219V80.9219C221.569 80.9219 240.062 63.4098 240.062 40.3125H238.062ZM197.578 61.75C210.104 61.75 219.766 52.3755 219.766 40.1719H217.766C217.766 51.2182 209.053 59.75 197.578 59.75V61.75ZM219.766 40.1719C219.766 27.9258 210.108 18.5 197.578 18.5V20.5C209.048 20.5 217.766 29.0742 217.766 40.1719H219.766ZM197.578 18.5C185.048 18.5 175.391 27.9258 175.391 40.1719H177.391C177.391 29.0742 186.108 20.5 197.578 20.5V18.5ZM175.391 40.1719C175.391 52.3755 185.053 61.75 197.578 61.75V59.75C186.104 59.75 177.391 51.2182 177.391 40.1719H175.391Z" fill="white" mask="url(#path-1-outside-1_141_225)"/>
</svg>
