<svg width="184" height="77" viewBox="0 0 184 77" fill="none" xmlns="http://www.w3.org/2000/svg">
<mask id="path-1-outside-1_141_224" maskUnits="userSpaceOnUse" x="-1" y="-1" width="187" height="79" fill="black">
<rect fill="white" x="-1" y="-1" width="187" height="79"/>
<path d="M57.6094 0.4375H79.5938L44.7656 76.7969H35.6719L0.984375 0.4375H22.6875L40.125 41.3594L57.6094 0.4375ZM87.1875 76V0.4375H107.25V76H87.1875ZM183.844 76H159.516L140.391 47.2656V76H120.375V0.4375H140.391V28.6094L157.922 0.4375H180.984L157.828 37.2812L183.844 76Z"/>
</mask>
<path d="M57.6094 0.4375H79.5938L44.7656 76.7969H35.6719L0.984375 0.4375H22.6875L40.125 41.3594L57.6094 0.4375ZM87.1875 76V0.4375H107.25V76H87.1875ZM183.844 76H159.516L140.391 47.2656V76H120.375V0.4375H140.391V28.6094L157.922 0.4375H180.984L157.828 37.2812L183.844 76Z" fill="white"/>
<path d="M57.6094 0.4375V-0.5625H56.9492L56.6898 0.0445976L57.6094 0.4375ZM79.5938 0.4375L80.5036 0.852481L81.149 -0.5625H79.5938V0.4375ZM44.7656 76.7969V77.7969H45.4086L45.6755 77.2119L44.7656 76.7969ZM35.6719 76.7969L34.7614 77.2105L35.0278 77.7969H35.6719V76.7969ZM0.984375 0.4375V-0.5625H-0.568235L0.0739128 0.851092L0.984375 0.4375ZM22.6875 0.4375L23.6075 0.0454893L23.3484 -0.5625H22.6875V0.4375ZM40.125 41.3594L39.205 41.7514L40.1238 43.9074L41.0446 41.7523L40.125 41.3594ZM57.6094 1.4375H79.5938V-0.5625H57.6094V1.4375ZM78.6839 0.0225191L43.8558 76.3819L45.6755 77.2119L80.5036 0.852481L78.6839 0.0225191ZM44.7656 75.7969H35.6719V77.7969H44.7656V75.7969ZM36.5823 76.3833L1.89484 0.0239077L0.0739128 0.851092L34.7614 77.2105L36.5823 76.3833ZM0.984375 1.4375H22.6875V-0.5625H0.984375V1.4375ZM21.7675 0.829511L39.205 41.7514L41.045 40.9674L23.6075 0.0454893L21.7675 0.829511ZM41.0446 41.7523L58.529 0.830402L56.6898 0.0445976L39.2054 40.9665L41.0446 41.7523ZM87.1875 76H86.1875V77H87.1875V76ZM87.1875 0.4375V-0.5625H86.1875V0.4375H87.1875ZM107.25 0.4375H108.25V-0.5625H107.25V0.4375ZM107.25 76V77H108.25V76H107.25ZM88.1875 76V0.4375H86.1875V76H88.1875ZM87.1875 1.4375H107.25V-0.5625H87.1875V1.4375ZM106.25 0.4375V76H108.25V0.4375H106.25ZM107.25 75H87.1875V77H107.25V75ZM183.844 76V77H185.72L184.674 75.4423L183.844 76ZM159.516 76L158.683 76.5541L158.98 77H159.516V76ZM140.391 47.2656L141.223 46.7116L139.391 43.9584V47.2656H140.391ZM140.391 76V77H141.391V76H140.391ZM120.375 76H119.375V77H120.375V76ZM120.375 0.4375V-0.5625H119.375V0.4375H120.375ZM140.391 0.4375H141.391V-0.5625H140.391V0.4375ZM140.391 28.6094H139.391V32.109L141.24 29.1377L140.391 28.6094ZM157.922 0.4375V-0.5625H157.366L157.073 -0.090847L157.922 0.4375ZM180.984 0.4375L181.831 0.969627L182.794 -0.5625H180.984V0.4375ZM157.828 37.2812L156.981 36.7491L156.636 37.2994L156.998 37.839L157.828 37.2812ZM183.844 75H159.516V77H183.844V75ZM160.348 75.4459L141.223 46.7116L139.558 47.8197L158.683 76.5541L160.348 75.4459ZM139.391 47.2656V76H141.391V47.2656H139.391ZM140.391 75H120.375V77H140.391V75ZM121.375 76V0.4375H119.375V76H121.375ZM120.375 1.4375H140.391V-0.5625H120.375V1.4375ZM139.391 0.4375V28.6094H141.391V0.4375H139.391ZM141.24 29.1377L158.771 0.965847L157.073 -0.090847L139.542 28.081L141.24 29.1377ZM157.922 1.4375H180.984V-0.5625H157.922V1.4375ZM180.138 -0.0946274L156.981 36.7491L158.675 37.8134L181.831 0.969627L180.138 -0.0946274ZM156.998 37.839L183.014 76.5577L184.674 75.4423L158.658 36.7235L156.998 37.839Z" fill="white" mask="url(#path-1-outside-1_141_224)"/>
</svg>
